<svg width="383" height="74" viewBox="0 0 383 74" fill="none" xmlns="http://www.w3.org/2000/svg">
<circle cx="44.5" cy="51.5" r="6.5" fill="#9FC7AA"/>
<path d="M89.2122 18.4L74.5122 58H67.0122L52.3122 18.4H59.1522L68.3922 44.74L70.7922 52.6L73.1922 44.8L82.4322 18.4H89.2122ZM96.423 58V18.4H125.103V23.92H102.843V35.32H120.243V40.72H102.843V52.48H125.943V58H96.423ZM150.708 18.4C154.948 18.4 158.308 19.46 160.788 21.58C163.308 23.7 164.568 26.56 164.568 30.16C164.568 33.88 163.308 36.76 160.788 38.8C158.308 40.8 154.948 41.8 150.708 41.8L150.108 42.16H140.928V58H134.568V18.4H150.708ZM150.228 36.82C152.828 36.82 154.748 36.3 155.988 35.26C157.268 34.18 157.908 32.54 157.908 30.34C157.908 28.18 157.268 26.56 155.988 25.48C154.748 24.4 152.828 23.86 150.228 23.86H140.928V36.82H150.228ZM154.008 38.14L166.908 58H159.527L148.488 40.66L154.008 38.14ZM188.86 18.4C195.06 18.4 199.88 20.12 203.32 23.56C206.8 26.96 208.54 31.84 208.54 38.2C208.54 44.56 206.8 49.46 203.32 52.9C199.88 56.3 195.06 58 188.86 58H174.88V18.4H188.86ZM188.86 52.54C193.06 52.54 196.26 51.3 198.46 48.82C200.7 46.3 201.82 42.76 201.82 38.2C201.82 33.64 200.7 30.12 198.46 27.64C196.26 25.12 193.06 23.86 188.86 23.86H181.3V52.54H188.86ZM249.537 58H242.757L238.977 47.62H222.357L218.577 58H211.977L226.917 18.4H234.597L249.537 58ZM224.157 42.4H237.177L230.697 23.92L224.157 42.4ZM289.02 18.4V58H281.4L266.1 33.04L262.26 26.02H262.2L262.44 32.44V58H256.56V18.4H264.12L279.36 43.3L283.26 50.44H283.32L283.08 43.96V18.4H289.02ZM330.199 18.4V23.92H316.639V58H310.219V23.92H296.659V18.4H330.199Z" fill="black"/>
</svg>
